<?xml version="1.0" encoding="UTF-8" standalone="no"?>
<svg
   xmlns:dc="http://purl.org/dc/elements/1.1/"
   xmlns:cc="http://creativecommons.org/ns#"
   xmlns:rdf="http://www.w3.org/1999/02/22-rdf-syntax-ns#"
   xmlns:svg="http://www.w3.org/2000/svg"
   xmlns="http://www.w3.org/2000/svg"
   version="1.1"
   id="svg2"
   viewBox="0 0 512 512">
  <metadata
     id="metadata12">
    <rdf:RDF>
      <cc:Work
         rdf:about="">
        <dc:format>image/svg+xml</dc:format>
        <dc:type
           rdf:resource="http://purl.org/dc/dcmitype/StillImage" />
        <dc:title></dc:title>
      </cc:Work>
    </rdf:RDF>
  </metadata>
  <defs
     id="defs10" />
  <path
     id="path4"
     stroke-width="0"
     stroke="#fff"
     fill="transparent"
     d="M0 0h512v512H0z" />
  <path
     style="fill:#ffffff;fill-rule:evenodd"
     id="path6"
     d="m 19.75,14.438 c 59.538,112.29 142.51,202.35 232.28,292.718 l 3.626,3.75 0.063,-0.062 c 21.827,21.93 44.04,43.923 66.405,66.25 -18.856,14.813 -38.974,28.2 -59.938,40.312 l 28.532,28.53 68.717,-68.717 c 42.337,27.636 76.286,63.646 104.094,105.81 l 28.064,-28.06 c -42.47,-27.493 -79.74,-60.206 -106.03,-103.876 l 68.936,-68.938 -28.53,-28.53 c -11.115,21.853 -24.413,42.015 -39.47,60.593 -43.852,-43.8 -86.462,-85.842 -130.125,-125.47 -0.224,-0.203 -0.432,-0.422 -0.656,-0.625 C 183.624,122.75 108.515,63.91 19.75,14.437 Z m 142.345,125.906 200.56,200.53 c -4.36,4.443 -8.84,8.793 -13.405,13.032 L 148.875,153.53 Z" />
</svg>
